<?xml version="1.0" encoding="UTF-8"?>
<svg xmlns="http://www.w3.org/2000/svg" xmlns:xlink="http://www.w3.org/1999/xlink" width="3501" height="1501" viewBox="0 0 3501 1501">
<defs>
<clipPath id="clip-0">
<path clip-rule="nonzero" d="M 1273 273 L 2228 273 L 2228 1228 L 1273 1228 Z M 1273 273 "/>
</clipPath>
<clipPath id="clip-1">
<path clip-rule="nonzero" d="M 2228 750.5 C 2228 1014.21875 2014.21875 1228 1750.5 1228 C 1486.78125 1228 1273 1014.21875 1273 750.5 C 1273 486.78125 1486.78125 273 1750.5 273 C 2014.21875 273 2228 486.78125 2228 750.5 Z M 2228 750.5 "/>
</clipPath>
<clipPath id="clip-2">
<path clip-rule="nonzero" d="M 2228 750.5 C 2228 1014.21875 2014.21875 1228 1750.5 1228 C 1486.78125 1228 1273 1014.21875 1273 750.5 C 1273 486.78125 1486.78125 273 1750.5 273 C 2014.21875 273 2228 486.78125 2228 750.5 "/>
</clipPath>
<radialGradient id="radial-pattern-0" gradientUnits="userSpaceOnUse" cx="0" cy="0" fx="0" fy="0" r="477.5" gradientTransform="matrix(1, 0, 0, 1, 1750.5, 750.5)">
<stop offset="0" stop-color="rgb(13.876343%, 12.310791%, 12.701416%)" stop-opacity="1"/>
<stop offset="0.125" stop-color="rgb(14.13269%, 12.571716%, 12.962341%)" stop-opacity="1"/>
<stop offset="0.152344" stop-color="rgb(14.356995%, 12.802124%, 13.189697%)" stop-opacity="1"/>
<stop offset="0.175781" stop-color="rgb(14.625549%, 13.075256%, 13.46283%)" stop-opacity="1"/>
<stop offset="0.199219" stop-color="rgb(14.956665%, 13.412476%, 13.798523%)" stop-opacity="1"/>
<stop offset="0.222656" stop-color="rgb(15.242004%, 13.703918%, 14.08844%)" stop-opacity="1"/>
<stop offset="0.234375" stop-color="rgb(15.458679%, 13.925171%, 14.308167%)" stop-opacity="1"/>
<stop offset="0.246094" stop-color="rgb(15.693665%, 14.164734%, 14.547729%)" stop-opacity="1"/>
<stop offset="0.257812" stop-color="rgb(15.90271%, 14.378357%, 14.759827%)" stop-opacity="1"/>
<stop offset="0.265625" stop-color="rgb(16.081238%, 14.559937%, 14.93988%)" stop-opacity="1"/>
<stop offset="0.273438" stop-color="rgb(16.267395%, 14.750671%, 15.129089%)" stop-opacity="1"/>
<stop offset="0.28125" stop-color="rgb(16.462708%, 14.950562%, 15.327454%)" stop-opacity="1"/>
<stop offset="0.289062" stop-color="rgb(16.667175%, 15.159607%, 15.536499%)" stop-opacity="1"/>
<stop offset="0.296875" stop-color="rgb(16.882324%, 15.377808%, 15.753174%)" stop-opacity="1"/>
<stop offset="0.304688" stop-color="rgb(17.106628%, 15.605164%, 15.98053%)" stop-opacity="1"/>
<stop offset="0.3125" stop-color="rgb(17.340088%, 15.843201%, 16.217041%)" stop-opacity="1"/>
<stop offset="0.320312" stop-color="rgb(17.582703%, 16.091919%, 16.464233%)" stop-opacity="1"/>
<stop offset="0.328125" stop-color="rgb(17.835999%, 16.349792%, 16.722107%)" stop-opacity="1"/>
<stop offset="0.335938" stop-color="rgb(18.099976%, 16.618347%, 16.989136%)" stop-opacity="1"/>
<stop offset="0.34375" stop-color="rgb(18.373108%, 16.897583%, 17.266846%)" stop-opacity="1"/>
<stop offset="0.351562" stop-color="rgb(18.656921%, 17.1875%, 17.555237%)" stop-opacity="1"/>
<stop offset="0.359375" stop-color="rgb(18.951416%, 17.488098%, 17.854309%)" stop-opacity="1"/>
<stop offset="0.367188" stop-color="rgb(19.256592%, 17.799377%, 18.164062%)" stop-opacity="1"/>
<stop offset="0.375" stop-color="rgb(19.572449%, 18.122864%, 18.486023%)" stop-opacity="1"/>
<stop offset="0.382812" stop-color="rgb(19.900513%, 18.457031%, 18.817139%)" stop-opacity="1"/>
<stop offset="0.390625" stop-color="rgb(20.239258%, 18.80188%, 19.160461%)" stop-opacity="1"/>
<stop offset="0.398438" stop-color="rgb(20.59021%, 19.158936%, 19.515991%)" stop-opacity="1"/>
<stop offset="0.40625" stop-color="rgb(20.951843%, 19.528198%, 19.883728%)" stop-opacity="1"/>
<stop offset="0.414062" stop-color="rgb(21.324158%, 19.909668%, 20.263672%)" stop-opacity="1"/>
<stop offset="0.421875" stop-color="rgb(21.611023%, 20.201111%, 20.553589%)" stop-opacity="1"/>
<stop offset="0.425781" stop-color="rgb(21.806335%, 20.401001%, 20.751953%)" stop-opacity="1"/>
<stop offset="0.429688" stop-color="rgb(22.006226%, 20.603943%, 20.953369%)" stop-opacity="1"/>
<stop offset="0.433594" stop-color="rgb(22.207642%, 20.809937%, 21.157837%)" stop-opacity="1"/>
<stop offset="0.4375" stop-color="rgb(22.412109%, 21.018982%, 21.366882%)" stop-opacity="1"/>
<stop offset="0.441406" stop-color="rgb(22.619629%, 21.229553%, 21.577454%)" stop-opacity="1"/>
<stop offset="0.445312" stop-color="rgb(22.8302%, 21.444702%, 21.791077%)" stop-opacity="1"/>
<stop offset="0.449219" stop-color="rgb(23.043823%, 21.662903%, 22.007751%)" stop-opacity="1"/>
<stop offset="0.453125" stop-color="rgb(23.262024%, 21.884155%, 22.229004%)" stop-opacity="1"/>
<stop offset="0.457031" stop-color="rgb(23.48175%, 22.109985%, 22.451782%)" stop-opacity="1"/>
<stop offset="0.460938" stop-color="rgb(23.704529%, 22.337341%, 22.679138%)" stop-opacity="1"/>
<stop offset="0.464844" stop-color="rgb(23.931885%, 22.567749%, 22.909546%)" stop-opacity="1"/>
<stop offset="0.46875" stop-color="rgb(24.160767%, 22.802734%, 23.141479%)" stop-opacity="1"/>
<stop offset="0.472656" stop-color="rgb(24.394226%, 23.039246%, 23.377991%)" stop-opacity="1"/>
<stop offset="0.476562" stop-color="rgb(24.630737%, 23.280334%, 23.617554%)" stop-opacity="1"/>
<stop offset="0.480469" stop-color="rgb(24.8703%, 23.524475%, 23.860168%)" stop-opacity="1"/>
<stop offset="0.484375" stop-color="rgb(25.112915%, 23.771667%, 24.107361%)" stop-opacity="1"/>
<stop offset="0.488281" stop-color="rgb(25.358582%, 24.023438%, 24.356079%)" stop-opacity="1"/>
<stop offset="0.492188" stop-color="rgb(25.6073%, 24.276733%, 24.609375%)" stop-opacity="1"/>
<stop offset="0.496094" stop-color="rgb(25.85907%, 24.534607%, 24.865723%)" stop-opacity="1"/>
<stop offset="0.5" stop-color="rgb(26.115417%, 24.795532%, 25.125122%)" stop-opacity="1"/>
<stop offset="0.503906" stop-color="rgb(26.373291%, 25.059509%, 25.389099%)" stop-opacity="1"/>
<stop offset="0.507812" stop-color="rgb(26.635742%, 25.328064%, 25.654602%)" stop-opacity="1"/>
<stop offset="0.511719" stop-color="rgb(26.902771%, 25.598145%, 25.924683%)" stop-opacity="1"/>
<stop offset="0.515625" stop-color="rgb(27.171326%, 25.872803%, 26.197815%)" stop-opacity="1"/>
<stop offset="0.519531" stop-color="rgb(27.444458%, 26.152039%, 26.475525%)" stop-opacity="1"/>
<stop offset="0.523438" stop-color="rgb(27.720642%, 26.4328%, 26.754761%)" stop-opacity="1"/>
<stop offset="0.527344" stop-color="rgb(27.999878%, 26.71814%, 27.038574%)" stop-opacity="1"/>
<stop offset="0.53125" stop-color="rgb(28.283691%, 27.008057%, 27.325439%)" stop-opacity="1"/>
<stop offset="0.535156" stop-color="rgb(28.569031%, 27.2995%, 27.616882%)" stop-opacity="1"/>
<stop offset="0.539062" stop-color="rgb(28.858948%, 27.59552%, 27.911377%)" stop-opacity="1"/>
<stop offset="0.542969" stop-color="rgb(29.153442%, 27.894592%, 28.208923%)" stop-opacity="1"/>
<stop offset="0.546875" stop-color="rgb(29.450989%, 28.198242%, 28.511047%)" stop-opacity="1"/>
<stop offset="0.550781" stop-color="rgb(29.751587%, 28.504944%, 28.816223%)" stop-opacity="1"/>
<stop offset="0.554688" stop-color="rgb(30.055237%, 28.814697%, 29.124451%)" stop-opacity="1"/>
<stop offset="0.558594" stop-color="rgb(30.361938%, 29.129028%, 29.437256%)" stop-opacity="1"/>
<stop offset="0.5625" stop-color="rgb(30.674744%, 29.446411%, 29.753113%)" stop-opacity="1"/>
<stop offset="0.566406" stop-color="rgb(30.989075%, 29.768372%, 30.073547%)" stop-opacity="1"/>
<stop offset="0.570312" stop-color="rgb(31.307983%, 30.093384%, 30.397034%)" stop-opacity="1"/>
<stop offset="0.574219" stop-color="rgb(31.629944%, 30.421448%, 30.723572%)" stop-opacity="1"/>
<stop offset="0.578125" stop-color="rgb(31.956482%, 30.754089%, 31.054688%)" stop-opacity="1"/>
<stop offset="0.582031" stop-color="rgb(32.286072%, 31.089783%, 31.388855%)" stop-opacity="1"/>
<stop offset="0.585938" stop-color="rgb(32.618713%, 31.430054%, 31.7276%)" stop-opacity="1"/>
<stop offset="0.589844" stop-color="rgb(32.955933%, 31.774902%, 32.069397%)" stop-opacity="1"/>
<stop offset="0.59375" stop-color="rgb(33.297729%, 32.121277%, 32.415771%)" stop-opacity="1"/>
<stop offset="0.597656" stop-color="rgb(33.641052%, 32.473755%, 32.765198%)" stop-opacity="1"/>
<stop offset="0.601562" stop-color="rgb(33.990479%, 32.829285%, 33.119202%)" stop-opacity="1"/>
<stop offset="0.605469" stop-color="rgb(34.342957%, 33.187866%, 33.476257%)" stop-opacity="1"/>
<stop offset="0.609375" stop-color="rgb(34.698486%, 33.551025%, 33.837891%)" stop-opacity="1"/>
<stop offset="0.613281" stop-color="rgb(35.057068%, 33.918762%, 34.202576%)" stop-opacity="1"/>
<stop offset="0.617188" stop-color="rgb(35.421753%, 34.289551%, 34.571838%)" stop-opacity="1"/>
<stop offset="0.621094" stop-color="rgb(35.78949%, 34.663391%, 34.945679%)" stop-opacity="1"/>
<stop offset="0.625" stop-color="rgb(36.160278%, 35.041809%, 35.322571%)" stop-opacity="1"/>
<stop offset="0.628906" stop-color="rgb(36.534119%, 35.424805%, 35.702515%)" stop-opacity="1"/>
<stop offset="0.632812" stop-color="rgb(36.914062%, 35.810852%, 36.087036%)" stop-opacity="1"/>
<stop offset="0.636719" stop-color="rgb(37.297058%, 36.203003%, 36.476135%)" stop-opacity="1"/>
<stop offset="0.640625" stop-color="rgb(37.683105%, 36.598206%, 36.868286%)" stop-opacity="1"/>
<stop offset="0.644531" stop-color="rgb(38.075256%, 36.99646%, 37.265015%)" stop-opacity="1"/>
<stop offset="0.648438" stop-color="rgb(38.470459%, 37.397766%, 37.666321%)" stop-opacity="1"/>
<stop offset="0.652344" stop-color="rgb(38.868713%, 37.805176%, 38.070679%)" stop-opacity="1"/>
<stop offset="0.65625" stop-color="rgb(39.271545%, 38.215637%, 38.479614%)" stop-opacity="1"/>
<stop offset="0.660156" stop-color="rgb(39.678955%, 38.630676%, 38.893127%)" stop-opacity="1"/>
<stop offset="0.664062" stop-color="rgb(40.089417%, 39.050293%, 39.309692%)" stop-opacity="1"/>
<stop offset="0.667969" stop-color="rgb(40.504456%, 39.472961%, 39.730835%)" stop-opacity="1"/>
<stop offset="0.671875" stop-color="rgb(40.922546%, 39.900208%, 40.156555%)" stop-opacity="1"/>
<stop offset="0.675781" stop-color="rgb(41.345215%, 40.332031%, 40.585327%)" stop-opacity="1"/>
<stop offset="0.679688" stop-color="rgb(41.772461%, 40.768433%, 41.018677%)" stop-opacity="1"/>
<stop offset="0.683594" stop-color="rgb(42.204285%, 41.207886%, 41.456604%)" stop-opacity="1"/>
<stop offset="0.6875" stop-color="rgb(42.63916%, 41.651917%, 41.899109%)" stop-opacity="1"/>
<stop offset="0.691406" stop-color="rgb(43.078613%, 42.100525%, 42.344666%)" stop-opacity="1"/>
<stop offset="0.695312" stop-color="rgb(43.522644%, 42.553711%, 42.7948%)" stop-opacity="1"/>
<stop offset="0.699219" stop-color="rgb(43.969727%, 43.009949%, 43.249512%)" stop-opacity="1"/>
<stop offset="0.703125" stop-color="rgb(44.422913%, 43.470764%, 43.708801%)" stop-opacity="1"/>
<stop offset="0.707031" stop-color="rgb(44.87915%, 43.936157%, 44.171143%)" stop-opacity="1"/>
<stop offset="0.710938" stop-color="rgb(45.33844%, 44.406128%, 44.639587%)" stop-opacity="1"/>
<stop offset="0.714844" stop-color="rgb(45.803833%, 44.880676%, 45.111084%)" stop-opacity="1"/>
<stop offset="0.71875" stop-color="rgb(46.272278%, 45.358276%, 45.587158%)" stop-opacity="1"/>
<stop offset="0.722656" stop-color="rgb(46.7453%, 45.840454%, 46.06781%)" stop-opacity="1"/>
<stop offset="0.726562" stop-color="rgb(47.2229%, 46.327209%, 46.551514%)" stop-opacity="1"/>
<stop offset="0.730469" stop-color="rgb(47.705078%, 46.820068%, 47.041321%)" stop-opacity="1"/>
<stop offset="0.734375" stop-color="rgb(48.191833%, 47.315979%, 47.53418%)" stop-opacity="1"/>
<stop offset="0.738281" stop-color="rgb(48.681641%, 47.814941%, 48.031616%)" stop-opacity="1"/>
<stop offset="0.742188" stop-color="rgb(49.176025%, 48.320007%, 48.53363%)" stop-opacity="1"/>
<stop offset="0.746094" stop-color="rgb(49.674988%, 48.828125%, 49.040222%)" stop-opacity="1"/>
<stop offset="0.75" stop-color="rgb(50.178528%, 49.342346%, 49.551392%)" stop-opacity="1"/>
<stop offset="0.753906" stop-color="rgb(50.686646%, 49.859619%, 50.067139%)" stop-opacity="1"/>
<stop offset="0.757812" stop-color="rgb(51.197815%, 50.382996%, 50.587463%)" stop-opacity="1"/>
<stop offset="0.761719" stop-color="rgb(51.715088%, 50.909424%, 51.11084%)" stop-opacity="1"/>
<stop offset="0.765625" stop-color="rgb(52.235413%, 51.441956%, 51.64032%)" stop-opacity="1"/>
<stop offset="0.769531" stop-color="rgb(52.761841%, 51.977539%, 52.172852%)" stop-opacity="1"/>
<stop offset="0.773438" stop-color="rgb(53.291321%, 52.519226%, 52.711487%)" stop-opacity="1"/>
<stop offset="0.777344" stop-color="rgb(53.826904%, 53.063965%, 53.253174%)" stop-opacity="1"/>
<stop offset="0.78125" stop-color="rgb(54.36554%, 53.613281%, 53.800964%)" stop-opacity="1"/>
<stop offset="0.785156" stop-color="rgb(54.908752%, 54.167175%, 54.353333%)" stop-opacity="1"/>
<stop offset="0.789062" stop-color="rgb(55.456543%, 54.727173%, 54.910278%)" stop-opacity="1"/>
<stop offset="0.792969" stop-color="rgb(56.008911%, 55.290222%, 55.470276%)" stop-opacity="1"/>
<stop offset="0.796875" stop-color="rgb(56.565857%, 55.859375%, 56.036377%)" stop-opacity="1"/>
<stop offset="0.800781" stop-color="rgb(57.12738%, 56.43158%, 56.60553%)" stop-opacity="1"/>
<stop offset="0.804688" stop-color="rgb(57.693481%, 57.009888%, 57.180786%)" stop-opacity="1"/>
<stop offset="0.808594" stop-color="rgb(58.265686%, 57.591248%, 57.759094%)" stop-opacity="1"/>
<stop offset="0.8125" stop-color="rgb(58.840942%, 58.178711%, 58.343506%)" stop-opacity="1"/>
<stop offset="0.816406" stop-color="rgb(59.420776%, 58.770752%, 58.932495%)" stop-opacity="1"/>
<stop offset="0.820312" stop-color="rgb(60.005188%, 59.367371%, 59.526062%)" stop-opacity="1"/>
<stop offset="0.824219" stop-color="rgb(60.594177%, 59.968567%, 60.124207%)" stop-opacity="1"/>
<stop offset="0.828125" stop-color="rgb(61.187744%, 60.574341%, 60.726929%)" stop-opacity="1"/>
<stop offset="0.832031" stop-color="rgb(61.787415%, 61.184692%, 61.335754%)" stop-opacity="1"/>
<stop offset="0.835938" stop-color="rgb(62.390137%, 61.799622%, 61.947632%)" stop-opacity="1"/>
<stop offset="0.839844" stop-color="rgb(62.998962%, 62.420654%, 62.565613%)" stop-opacity="1"/>
<stop offset="0.84375" stop-color="rgb(63.61084%, 63.046265%, 63.186646%)" stop-opacity="1"/>
<stop offset="0.847656" stop-color="rgb(64.228821%, 63.676453%, 63.813782%)" stop-opacity="1"/>
<stop offset="0.851562" stop-color="rgb(64.851379%, 64.311218%, 64.445496%)" stop-opacity="1"/>
<stop offset="0.855469" stop-color="rgb(65.478516%, 64.950562%, 65.081787%)" stop-opacity="1"/>
<stop offset="0.859375" stop-color="rgb(66.110229%, 65.596008%, 65.724182%)" stop-opacity="1"/>
<stop offset="0.863281" stop-color="rgb(66.746521%, 66.244507%, 66.369629%)" stop-opacity="1"/>
<stop offset="0.867188" stop-color="rgb(67.388916%, 66.899109%, 67.021179%)" stop-opacity="1"/>
<stop offset="0.871094" stop-color="rgb(68.034363%, 67.558289%, 67.677307%)" stop-opacity="1"/>
<stop offset="0.875" stop-color="rgb(68.685913%, 68.222046%, 68.338013%)" stop-opacity="1"/>
<stop offset="0.878906" stop-color="rgb(69.342041%, 68.891907%, 69.004822%)" stop-opacity="1"/>
<stop offset="0.882812" stop-color="rgb(70.002747%, 69.566345%, 69.674683%)" stop-opacity="1"/>
<stop offset="0.886719" stop-color="rgb(70.669556%, 70.245361%, 70.350647%)" stop-opacity="1"/>
<stop offset="0.890625" stop-color="rgb(71.339417%, 70.930481%, 71.032715%)" stop-opacity="1"/>
<stop offset="0.894531" stop-color="rgb(72.015381%, 71.618652%, 71.717834%)" stop-opacity="1"/>
<stop offset="0.898438" stop-color="rgb(72.697449%, 72.312927%, 72.409058%)" stop-opacity="1"/>
<stop offset="0.902344" stop-color="rgb(73.382568%, 73.013306%, 73.104858%)" stop-opacity="1"/>
<stop offset="0.90625" stop-color="rgb(74.072266%, 73.716736%, 73.805237%)" stop-opacity="1"/>
<stop offset="0.910156" stop-color="rgb(74.768066%, 74.42627%, 74.511719%)" stop-opacity="1"/>
<stop offset="0.914062" stop-color="rgb(75.468445%, 75.141907%, 75.222778%)" stop-opacity="1"/>
<stop offset="0.917969" stop-color="rgb(76.174927%, 75.860596%, 75.938416%)" stop-opacity="1"/>
<stop offset="0.921875" stop-color="rgb(76.88446%, 76.585388%, 76.660156%)" stop-opacity="1"/>
<stop offset="0.925781" stop-color="rgb(77.600098%, 77.316284%, 77.386475%)" stop-opacity="1"/>
<stop offset="0.929688" stop-color="rgb(78.321838%, 78.050232%, 78.117371%)" stop-opacity="1"/>
<stop offset="0.933594" stop-color="rgb(79.046631%, 78.790283%, 78.85437%)" stop-opacity="1"/>
<stop offset="0.9375" stop-color="rgb(79.777527%, 79.536438%, 79.597473%)" stop-opacity="1"/>
<stop offset="0.941406" stop-color="rgb(80.513%, 80.28717%, 80.343628%)" stop-opacity="1"/>
<stop offset="0.945312" stop-color="rgb(81.254578%, 81.04248%, 81.095886%)" stop-opacity="1"/>
<stop offset="0.949219" stop-color="rgb(82.000732%, 81.803894%, 81.854248%)" stop-opacity="1"/>
<stop offset="0.953125" stop-color="rgb(82.751465%, 82.571411%, 82.615662%)" stop-opacity="1"/>
<stop offset="0.957031" stop-color="rgb(83.508301%, 83.34198%, 83.383179%)" stop-opacity="1"/>
<stop offset="0.960938" stop-color="rgb(84.269714%, 84.118652%, 84.156799%)" stop-opacity="1"/>
<stop offset="0.964844" stop-color="rgb(85.035706%, 84.901428%, 84.934998%)" stop-opacity="1"/>
<stop offset="0.96875" stop-color="rgb(85.8078%, 85.688782%, 85.717773%)" stop-opacity="1"/>
<stop offset="0.972656" stop-color="rgb(86.584473%, 86.480713%, 86.506653%)" stop-opacity="1"/>
<stop offset="0.976562" stop-color="rgb(87.367249%, 87.278748%, 87.301636%)" stop-opacity="1"/>
<stop offset="0.980469" stop-color="rgb(88.154602%, 88.082886%, 88.101196%)" stop-opacity="1"/>
<stop offset="0.984375" stop-color="rgb(88.948059%, 88.891602%, 88.905334%)" stop-opacity="1"/>
<stop offset="0.988281" stop-color="rgb(89.746094%, 89.704895%, 89.715576%)" stop-opacity="1"/>
<stop offset="0.992188" stop-color="rgb(90.550232%, 90.524292%, 90.531921%)" stop-opacity="1"/>
<stop offset="0.996094" stop-color="rgb(91.357422%, 91.349792%, 91.351318%)" stop-opacity="1"/>
<stop offset="1" stop-color="rgb(91.763306%, 91.763306%, 91.763306%)" stop-opacity="1"/>
</radialGradient>
</defs>
<path fill-rule="nonzero" fill="rgb(91.796875%, 91.796875%, 91.796875%)" fill-opacity="1" d="M 3500.5 1500.5 L 0.5 1500.5 L 0.5 0.5 L 3500.5 0.5 L 3500.5 1500.5 "/>
<!-- <path fill="none" stroke-width="10" stroke-linecap="butt" stroke-linejoin="miter" stroke="rgb(0%, 0%, 0%)" stroke-opacity="1" stroke-miterlimit="10" d="M 35005 5 L 5 5 L 5 15005 L 35005 15005 Z M 35005 5 " transform="matrix(0.1, 0, 0, -0.1, 0, 1501)"/> -->
<g clip-path="url(#clip-0)">
<g clip-path="url(#clip-1)">
<g clip-path="url(#clip-2)">
<!-- <path fill-rule="nonzero" fill="url(#radial-pattern-0)" d="M 1273 273 L 1273 1228 L 2228 1228 L 2228 273 Z M 1273 273 "/> -->
</g>
</g>
</g>
<path fill-rule="nonzero" fill="rgb(0%, 0%, 0%)" fill-opacity="1" d="M 1165.5 750.5 C 1165.5 990.742188 970.742188 1185.5 730.5 1185.5 C 490.257812 1185.5 295.5 990.742188 295.5 750.5 C 295.5 510.257812 490.257812 315.5 730.5 315.5 C 970.742188 315.5 1165.5 510.257812 1165.5 750.5 "/>
<path fill-rule="nonzero" fill="rgb(93.359375%, 11.767578%, 32.151794%)" fill-opacity="1" d="M 825.269531 512.5 L 843.359375 512.5 C 846.238281 534.238281 851.621094 553.660156 860.03125 570.261719 C 843.570312 555.539062 832.308594 535.988281 825.269531 512.5 "/>
<path fill-rule="nonzero" fill="rgb(93.359375%, 11.767578%, 32.151794%)" fill-opacity="1" d="M 590 796.5 C 576.96875 840.378906 588.351562 870.648438 612.929688 886.941406 C 608.050781 871.53125 608.210938 852.359375 615 829.5 C 633 794.5 667 785.5 704 790.5 L 702 701.5 C 693.941406 700.960938 685.828125 700.871094 677.738281 701.25 L 679 757.5 C 642 752.5 608 761.5 590 796.5 "/>
<path fill-rule="nonzero" fill="rgb(93.359375%, 11.767578%, 32.151794%)" fill-opacity="1" d="M 940 629.960938 L 940 695.859375 C 885.429688 692.851562 845.96875 678.050781 819 653.5 L 819 856.5 C 805 942.5 748 988.5 648 988.5 C 602 985.25 566.570312 972.929688 541.53125 949.71875 C 565.03125 994.671875 608.671875 1016.949219 673 1021.5 C 773 1021.5 830 975.5 844 889.5 L 844 686.5 C 870.96875 711.050781 910.429688 725.851562 965 728.859375 L 965 633.5 C 956.109375 632.839844 947.789062 631.648438 940 629.960938 "/>
<path fill-rule="nonzero" fill="rgb(100%, 100%, 100%)" fill-opacity="1" d="M 819 856.5 L 819 653.5 C 845.96875 678.050781 885.429688 692.851562 940 695.859375 L 940 629.960938 C 901.011719 621.539062 875.449219 600.628906 860.03125 570.261719 C 843.570312 555.539062 832.308594 535.988281 825.269531 512.5 L 754 512.5 L 752 875.5 C 749 917.5 716 934.5 679 933.5 C 646.800781 930.320312 621.699219 914.699219 612.929688 886.941406 C 588.351562 870.648438 576.96875 840.378906 590 796.5 C 608 761.5 642 752.5 679 757.5 L 677.738281 701.25 C 597.988281 704.839844 521 752.988281 521 856.5 C 522.050781 894.671875 528.871094 925.488281 541.53125 949.71875 C 566.570312 972.929688 602 985.25 648 988.5 C 748 988.5 805 942.5 819 856.5 "/>
<path fill="none" stroke-width="10" stroke-linecap="butt" stroke-linejoin="miter" stroke="rgb(0%, 0%, 100%)" stroke-opacity="1" stroke-miterlimit="10" d="M 8190 6445 L 8190 8475 C 8459.6875 8229.492188 8854.296875 8081.484375 9400 8051.40625 L 9400 8710.390625 C 9010.117188 8794.609375 8754.492188 9003.710938 8600.3125 9307.382812 C 8435.703125 9454.609375 8323.085938 9650.117188 8252.695312 9885 L 7540 9885 L 7520 6255 C 7490 5835 7160 5665 6790 5675 C 6468.007812 5706.796875 6216.992188 5863.007812 6129.296875 6140.585938 C 5883.515625 6303.515625 5769.6875 6606.210938 5900 7045 C 6080 7395 6420 7485 6790 7435 L 6777.382812 7997.5 C 5979.882812 7961.601562 5210 7480.117188 5210 6445 C 5220.507812 6063.28125 5288.710938 5755.117188 5415.3125 5512.8125 C 5665.703125 5280.703125 6020 5157.5 6480 5125 C 7480 5125 8050 5585 8190 6445 Z M 8190 6445 " transform="matrix(0.1, 0, 0, -0.1, 0, 1501)"/>
<path fill-rule="nonzero" fill="rgb(40.795898%, 78.90625%, 81.639099%)" fill-opacity="1" d="M 677.738281 701.25 L 677 668.5 C 589.378906 662.648438 496 709.5 496 823.5 C 497.609375 881.851562 512.679688 923.011719 541.53125 949.71875 C 528.871094 925.488281 522.050781 894.671875 521 856.5 C 521 752.988281 597.988281 704.839844 677.738281 701.25 "/>
<path fill-rule="nonzero" fill="rgb(40.795898%, 78.90625%, 81.639099%)" fill-opacity="1" d="M 679 933.5 C 716 934.5 749 917.5 752 875.5 L 754 512.5 L 825.269531 512.5 C 822.179688 502.230469 819.910156 491.199219 818.359375 479.5 L 729 479.5 L 727 842.5 C 724 884.5 691 901.5 654 900.5 C 638.25 898.941406 624.199219 894.410156 612.929688 886.941406 C 621.699219 914.699219 646.800781 930.320312 679 933.5 "/>
<path fill-rule="nonzero" fill="rgb(40.795898%, 78.90625%, 81.639099%)" fill-opacity="1" d="M 940 600.5 L 940 629.960938 C 901.011719 621.539062 875.449219 600.628906 860.03125 570.261719 C 879.160156 587.351562 905.289062 597.910156 940 600.5 "/>
<path fill-rule="nonzero" fill="rgb(100%, 100%, 100%)" fill-opacity="1" d="M 2185.5 750.5 C 2185.5 990.742188 1990.738281 1185.5 1750.5 1185.5 C 1510.261719 1185.5 1315.5 990.742188 1315.5 750.5 C 1315.5 510.257812 1510.261719 315.5 1750.5 315.5 C 1990.738281 315.5 2185.5 510.257812 2185.5 750.5 "/>
<path fill-rule="nonzero" fill="rgb(93.359375%, 11.767578%, 32.151794%)" fill-opacity="1" d="M 1845.269531 512.5 L 1863.359375 512.5 C 1866.238281 534.238281 1871.621094 553.660156 1880.03125 570.261719 C 1863.570312 555.539062 1852.308594 535.988281 1845.269531 512.5 "/>
<path fill-rule="nonzero" fill="rgb(93.359375%, 11.767578%, 32.151794%)" fill-opacity="1" d="M 1610 796.5 C 1596.96875 840.378906 1608.351562 870.648438 1632.929688 886.941406 C 1628.050781 871.53125 1628.210938 852.359375 1635 829.5 C 1653 794.5 1687 785.5 1724 790.5 L 1722 701.5 C 1713.941406 700.960938 1705.828125 700.871094 1697.738281 701.25 L 1699 757.5 C 1662 752.5 1628 761.5 1610 796.5 "/>
<path fill-rule="nonzero" fill="rgb(93.359375%, 11.767578%, 32.151794%)" fill-opacity="1" d="M 1960 629.960938 L 1960 695.859375 C 1905.429688 692.851562 1865.96875 678.050781 1839 653.5 L 1839 856.5 C 1825 942.5 1768 988.5 1668 988.5 C 1622 985.25 1586.570312 972.929688 1561.53125 949.71875 C 1585.03125 994.671875 1628.671875 1016.949219 1693 1021.5 C 1793 1021.5 1850 975.5 1864 889.5 L 1864 686.5 C 1890.96875 711.050781 1930.429688 725.851562 1985 728.859375 L 1985 633.5 C 1976.109375 632.839844 1967.789062 631.648438 1960 629.960938 "/>
<path fill-rule="nonzero" fill="rgb(0%, 0%, 0%)" fill-opacity="1" d="M 1839 856.5 L 1839 653.5 C 1865.96875 678.050781 1905.429688 692.851562 1960 695.859375 L 1960 629.960938 C 1921.011719 621.539062 1895.449219 600.628906 1880.03125 570.261719 C 1863.570312 555.539062 1852.308594 535.988281 1845.269531 512.5 L 1774 512.5 L 1772 875.5 C 1769 917.5 1736 934.5 1699 933.5 C 1666.800781 930.320312 1641.699219 914.699219 1632.929688 886.941406 C 1608.351562 870.648438 1596.96875 840.378906 1610 796.5 C 1628 761.5 1662 752.5 1699 757.5 L 1697.738281 701.25 C 1617.988281 704.839844 1541 752.988281 1541 856.5 C 1542.050781 894.671875 1548.871094 925.488281 1561.53125 949.71875 C 1586.570312 972.929688 1622 985.25 1668 988.5 C 1768 988.5 1825 942.5 1839 856.5 "/>
<path fill-rule="nonzero" fill="rgb(40.795898%, 78.90625%, 81.639099%)" fill-opacity="1" d="M 1697.738281 701.25 L 1697 668.5 C 1609.378906 662.648438 1516 709.5 1516 823.5 C 1517.609375 881.851562 1532.679688 923.011719 1561.53125 949.71875 C 1548.871094 925.488281 1542.050781 894.671875 1541 856.5 C 1541 752.988281 1617.988281 704.839844 1697.738281 701.25 "/>
<path fill-rule="nonzero" fill="rgb(40.795898%, 78.90625%, 81.639099%)" fill-opacity="1" d="M 1699 933.5 C 1736 934.5 1769 917.5 1772 875.5 L 1774 512.5 L 1845.269531 512.5 C 1842.179688 502.230469 1839.910156 491.199219 1838.359375 479.5 L 1749 479.5 L 1747 842.5 C 1744 884.5 1711 901.5 1674 900.5 C 1658.25 898.941406 1644.199219 894.410156 1632.929688 886.941406 C 1641.699219 914.699219 1666.800781 930.320312 1699 933.5 "/>
<path fill-rule="nonzero" fill="rgb(40.795898%, 78.90625%, 81.639099%)" fill-opacity="1" d="M 1960 600.5 L 1960 629.960938 C 1921.011719 621.539062 1895.449219 600.628906 1880.03125 570.261719 C 1899.160156 587.351562 1925.289062 597.910156 1960 600.5 "/>
<path fill="none" stroke-width="300" stroke-linecap="butt" stroke-linejoin="miter" stroke="rgb(0%, 0%, 0%)" stroke-opacity="1" stroke-miterlimit="10" d="M 32055 7505 C 32055 5102.578125 30107.382812 3155 27705 3155 C 25302.617188 3155 23355 5102.578125 23355 7505 C 23355 9907.421875 25302.617188 11855 27705 11855 C 30107.382812 11855 32055 9907.421875 32055 7505 Z M 32055 7505 " transform="matrix(0.1, 0, 0, -0.1, 0, 1501)"/>
<path fill-rule="nonzero" fill="rgb(0%, 0%, 0%)" fill-opacity="1" d="M 2967.5 613.460938 C 2928.511719 605.039062 2902.949219 584.128906 2887.53125 553.761719 C 2879.121094 537.160156 2873.738281 517.738281 2870.859375 496 L 2781.5 496 L 2779.5 859 C 2776.5 901 2743.5 918 2706.5 917 C 2674.300781 913.820312 2649.199219 898.199219 2640.429688 870.441406 C 2635.550781 855.03125 2635.710938 835.859375 2642.5 813 C 2660.5 778 2694.5 769 2731.5 774 L 2729.5 685 C 2721.441406 684.460938 2713.328125 684.371094 2705.238281 684.75 C 2625.488281 688.339844 2548.5 736.488281 2548.5 840 C 2549.550781 878.171875 2556.371094 908.988281 2569.03125 933.21875 C 2592.53125 978.171875 2636.171875 1000.449219 2700.5 1005 C 2800.5 1005 2857.5 959 2871.5 873 L 2871.5 670 C 2898.46875 694.550781 2937.929688 709.351562 2992.5 712.359375 L 2992.5 617 C 2983.609375 616.339844 2975.289062 615.148438 2967.5 613.460938 "/>
</svg>
